HIERARCHY
ROOT Bip001_Pelvis
{
  OFFSET 34.4345 95.6767 -26.8758
  CHANNELS 6 Xposition Yposition Zposition Zrotation Xrotation Yrotation
  JOINT Bip001_Spine
  {
    OFFSET 1.4188e-005 10.2191 -0.0116013
    CHANNELS 3 Zrotation Xrotation Yrotation
    JOINT Bip001_L_Thigh
    {
      OFFSET 11.0458 -10.2192 0.0116197
      CHANNELS 3 Zrotation Xrotation Yrotation
      JOINT Bip001_L_Calf
      {
        OFFSET -0.707118 -44.0221 0.360014
        CHANNELS 3 Zrotation Xrotation Yrotation
        JOINT Bip001_L_Foot
        {
          OFFSET -0.651902 -40.5938 -3.56146
          CHANNELS 3 Zrotation Xrotation Yrotation
          JOINT Bip001_L_Toe0
          {
            OFFSET 0.0530839 -10.2181 13.1504
            CHANNELS 3 Zrotation Xrotation Yrotation
            End Site
            {
              OFFSET -1.02532e-005 0 7.55606
            }
          }
        }
      }
    }
    JOINT Bip001_R_Thigh
    {
      OFFSET -11.0458 -10.2191 0.0115893
      CHANNELS 3 Zrotation Xrotation Yrotation
      JOINT Bip001_R_Calf
      {
        OFFSET 0.706994 -44.0221 0.35984
        CHANNELS 3 Zrotation Xrotation Yrotation
        JOINT Bip001_R_Foot
        {
          OFFSET 0.651786 -40.5938 -3.5613
          CHANNELS 3 Zrotation Xrotation Yrotation
          JOINT Bip001_R_Toe0
          {
            OFFSET -0.0531479 -10.2181 13.1504
            CHANNELS 3 Zrotation Xrotation Yrotation
            End Site
            {
              OFFSET -1.02894e-005 0 7.55606
            }
          }
        }
      }
    }
    JOINT Bip001_Spine1
    {
      OFFSET 1.87041e-005 14.5736 1.08638
      CHANNELS 3 Zrotation Xrotation Yrotation
      JOINT Bip001_Spine2
      {
        OFFSET 2.24614e-005 14.5058 -1.69078
        CHANNELS 3 Zrotation Xrotation Yrotation
        JOINT Bip001_Neck
        {
          OFFSET 2.20278e-005 15.3945 -0.489414
          CHANNELS 3 Zrotation Xrotation Yrotation
          JOINT Bip001_L_Clavicle
          {
            OFFSET 6.06036 -0.000579998 0.00836775
            CHANNELS 3 Zrotation Xrotation Yrotation
            JOINT Bip001_L_UpperArm
            {
              OFFSET 11.5509 -0.0600302 0.00193952
              CHANNELS 3 Zrotation Xrotation Yrotation
              JOINT Bip001_L_Forearm
              {
                OFFSET 25.9523 0.0806089 -2.15551
                CHANNELS 3 Zrotation Xrotation Yrotation
                JOINT Bip001_L_Hand
                {
                  OFFSET 32.2475 0.153767 1.63968
                  CHANNELS 3 Zrotation Xrotation Yrotation
                  JOINT Bip001_L_Finger0
                  {
                    OFFSET 6.04639 -2.20976 5.90322
                    CHANNELS 3 Zrotation Xrotation Yrotation
                    End Site
                    {
                      OFFSET 4.22375 -1.43895 0.606485
                    }
                  }
                  JOINT Bip001_L_Finger1
                  {
                    OFFSET 11.0826 -0.704819 -0.198153
                    CHANNELS 3 Zrotation Xrotation Yrotation
                    End Site
                    {
                      OFFSET 6.20027 -0.397518 -0.0787166
                    }
                  }
                }
              }
            }
          }
          JOINT Bip001_R_Clavicle
          {
            OFFSET -6.06037 -0.000563197 0.00835105
            CHANNELS 3 Zrotation Xrotation Yrotation
            JOINT Bip001_R_UpperArm
            {
              OFFSET -11.5509 -0.0599978 0.00190698
              CHANNELS 3 Zrotation Xrotation Yrotation
              JOINT Bip001_R_Forearm
              {
                OFFSET -25.9523 0.0806822 -2.15589
                CHANNELS 3 Zrotation Xrotation Yrotation
                JOINT Bip001_R_Hand
                {
                  OFFSET -32.2475 0.153859 1.63989
                  CHANNELS 3 Zrotation Xrotation Yrotation
                  JOINT Bip001_R_Finger0
                  {
                    OFFSET -6.04641 -2.20976 5.90317
                    CHANNELS 3 Zrotation Xrotation Yrotation
                    End Site
                    {
                      OFFSET -4.22376 -1.43895 0.60647
                    }
                  }
                  JOINT Bip001_R_Finger1
                  {
                    OFFSET -11.0826 -0.704794 -0.198182
                    CHANNELS 3 Zrotation Xrotation Yrotation
                    End Site
                    {
                      OFFSET -6.20028 -0.397504 -0.0787333
                    }
                  }
                }
              }
            }
          }
          JOINT Bip001_Head
          {
            OFFSET 1.09673e-005 11.2744 2.05948
            CHANNELS 3 Zrotation Xrotation Yrotation
            End Site
            {
              OFFSET 2.89576e-005 20.8808 -2.77728e-005
            }
          }
        }
      }
    }
  }
}
MOTION
Frames:	5
Frame Time:	0.04
38.4111 94.9368 -30.482 -3.54648 -3.3529 -16.5229 -0.000409535 2.93477 -1.33298 5.54431 -0.535618 15.5909 -1.25249 16.4146 11.6599 4.56348 -10.1217 0.281836 1.84318 -5.79395 -0.70761 -5.05277 -5.8127 2.30337 -1.242 11.8675 2.19077 -3.60543 -5.27529 5.31165 3.45796 -11.5779 4.13261 0.0677775 5.86877 -2.67122 0.067777 5.86878 -2.67122 1.02739 -1.76894 5.61489 -20.5455 6.47632 -11.8029 -50.3177 36.3133 -1.01476 14.132 -6.00484 -31.7912 10.1647 0.545797 -5.48506 -9.54166e-015 7.95139e-015 1.59028e-015 -6.36111e-015 7.95139e-015 -7.95139e-016 21.2046 5.21077 10.2979 75.2823 24.2269 -15.3456 -24.0416 -6.44568 20.4395 1.0435 -10.3151 4.17855 9.93923e-016 0 3.18055e-015 1.59028e-015 1.59028e-015 1.59028e-015 -1.03161 -6.73481 6.01269 
38.6246 94.8414 -30.1745 -3.36548 -3.73026 -17.7501 0.0810516 3.00488 -1.43822 4.68082 0.123601 15.7815 -1.17631 16.1861 12.6499 4.98 -9.96285 0.281698 1.90794 -6.03966 -0.727108 -5.68016 -6.16488 2.37434 -1.29731 12.7862 2.38922 -3.3891 -5.85587 6.31622 3.48857 -11.67 4.17196 0.238215 6.00677 -2.88664 0.238213 6.00677 -2.88663 1.32306 -1.89418 6.48368 -20.5487 6.91317 -12.6505 -50.3932 35.519 -2.23689 13.8205 -6.86925 -31.9069 11.2353 0.0548546 -5.50799 -2.20695e-032 1.59028e-015 7.95139e-016 -3.18055e-015 0 7.95139e-016 21.6364 5.06694 9.40005 72.8228 20.0603 -14.9323 -25.5649 -2.9697 21.9562 -0.750219 -10.1581 5.14123 4.57205e-015 -3.97569e-015 -0 5.36719e-015 -2.38542e-015 -0 -1.18141 -7.17059 6.97957 
38.8861 94.731 -29.9035 -3.11226 -4.06184 -18.8188 0.183046 3.06372 -1.57473 3.79784 0.547356 15.84 -1.24729 16.1539 13.6172 5.61387 -9.76235 0.281526 1.90119 -6.35325 -0.608829 -6.40646 -6.71727 2.9238 -1.1789 13.9422 2.56266 -3.39816 -6.42789 6.75581 3.52657 -11.8013 4.2457 0.45144 6.12122 -3.16608 0.451444 6.12125 -3.16609 1.11163 -2.05613 7.52939 -19.9671 7.297 -13.4164 -50.8538 35.3481 -2.7553 13.5948 -7.39942 -32.536 11.5731 0.0763775 -5.64463 6.36111e-015 -3.97569e-015 -1.59028e-015 3.18055e-015 -5.56597e-015 -1.59028e-015 22.3965 4.72561 7.99601 68.8107 12.9618 -13.8113 -27.4628 1.02034 25.5899 -3.11828 -10.2352 7.09739 1.98785e-016 7.95139e-016 1.59028e-015 1.68967e-015 0 -1.59028e-015 -1.15292 -7.61556 7.93847 
39.1722 94.5757 -29.6519 -2.89838 -4.37368 -19.4184 0.310036 3.10817 -1.77776 3.121 0.677907 15.9827 -1.40185 16.6574 14.3565 5.80645 -10.1367 0.308828 1.90603 -6.41166 -0.640548 -7.00201 -7.22919 3.72728 -1.1223 15.1718 2.72965 -3.69141 -6.97017 6.61728 3.64714 -12.1193 4.34204 0.718244 6.20515 -3.58029 0.718244 6.20515 -3.58029 1.04729 -1.597 8.5931 -19.4284 7.15039 -14.6692 -51.8645 34.8332 -2.07905 14.5584 -6.05192 -33.8395 11.5611 -0.0474957 -5.95451 3.18055e-015 -1.59028e-015 1.59028e-015 3.18055e-015 -5.56597e-015 1.59028e-015 23.145 3.80944 6.87283 64.9436 5.53763 -13.5947 -29.5672 1.19066 31.0195 -6.92534 -10.7286 8.29244 6.55989e-015 0 -0 8.74652e-015 -1.59028e-015 -3.18055e-015 -1.29913 -8.42692 9.01657 
39.4751 94.3555 -29.4405 -2.72667 -4.62506 -19.8747 0.466609 3.14757 -1.98774 2.51859 0.630645 15.9384 -1.77453 17.1962 15.0746 7.71095 -9.56965 0.329891 2.34922 -7.32548 -0.996878 -7.47283 -8.00931 4.25981 -1.26477 16.852 3.15422 -4.08739 -7.57294 6.46621 3.82569 -12.5616 4.44269 1.04482 6.27689 -4.01013 1.04482 6.27692 -4.01017 1.71063 -1.78808 9.1009 -19.6134 7.47509 -14.9953 -52.7871 35.1569 -0.664617 15.4777 -4.82002 -35.7888 11.8774 -0.306905 -6.36946 -2.48282e-032 -7.95139e-016 -1.78906e-015 -3.18055e-015 -1.59028e-015 5.96354e-016 23.2339 3.83633 6.10795 60.2093 -4.24879 -13.3224 -32.8497 3.07961 38.9609 -11.7524 -10.9861 7.62989 -7.95139e-016 -6.36111e-015 6.36111e-015 -3.18055e-015 -6.36111e-015 9.54166e-015 -2.2595 -7.78408 9.84717 
